<?xml version="1.0" encoding="UTF-8" standalone="no"?>
<!DOCTYPE svg PUBLIC "-//W3C//DTD SVG 1.1//EN" "http://www.w3.org/Graphics/SVG/1.1/DTD/svg11.dtd">
<svg xmlns="http://www.w3.org/2000/svg" xmlns:xlink="http://www.w3.org/1999/xlink" version="1.1" width="3000pt" height="3000pt" viewBox="0 0 3000 3000">
<g enable-background="new">
<clipPath id="cp0">
<path transform="matrix(2.7777777,0,0,-2.7777777,0,3000)" d="M 0 0 L 1080 0 L 1080 1080 L 0 1080 Z "/>
</clipPath>
<g clip-path="url(#cp0)">
<path transform="matrix(2.7777777,0,0,-2.7777777,0,3000)" d="M 213.1926 949.7928 L 206.3256 943.2248 L 37.5916 943.2248 L 30.1426 952.1688 L 57.6916 1036.023 L 203.5286 1036.023 Z " fill="#ffffff"/>
<path transform="matrix(2.7777777,0,0,-2.7777777,0,3000)" d="M 918.5096 378.0094 C 918.5096 382.3364 915.9126 384.3144 910.4736 384.3144 L 902.2526 384.3144 L 899.5956 370.0354 L 909.1136 370.0354 C 914.6766 370.0354 918.5096 373.3114 918.5096 378.0094 M 914.8006 362.9894 L 922.5266 347.4134 L 912.9456 347.4134 L 906.7036 362.0624 L 898.1116 362.0624 L 895.4546 347.4134 L 886.9866 347.4134 L 895.2076 392.2254 L 910.2886 392.2254 C 921.0426 392.2254 927.1616 387.2184 927.1616 378.4414 C 927.1616 371.1484 922.1556 365.2144 914.8006 362.9894 M 832.1706 364.5964 L 828.6476 382.0264 L 828.5246 384.0654 L 827.7216 382.0264 L 817.7696 364.5964 Z M 833.7166 357.0564 L 813.5046 357.0564 L 808.0036 347.4134 L 798.1756 347.4134 L 824.6306 392.2254 L 834.6436 392.2254 L 844.6566 347.4134 L 835.6946 347.4134 Z M 742.5556 384.6224 L 740.5776 373.6214 L 761.4086 373.6214 L 760.0486 366.3894 L 739.2176 366.3894 L 737.1786 355.0784 L 759.5536 355.0784 L 758.1316 347.4134 L 727.2896 347.4134 L 735.5106 392.2254 L 766.0436 392.2254 L 764.6836 384.6224 Z M 628.2826 392.2254 L 637.1196 392.2254 L 640.6436 360.0844 L 640.5196 357.2414 L 641.3226 360.0844 L 656.0956 392.2254 L 664.8716 392.2254 L 667.8396 360.0844 L 667.6546 357.2414 L 668.4576 360.0844 L 683.7856 392.2254 L 693.1186 392.2254 L 670.7446 347.4134 L 661.9676 347.4134 L 658.8766 380.6054 L 659.0006 383.0154 L 658.3206 380.6054 L 643.0536 347.4134 L 634.2156 347.4134 Z M 552.3266 358.4774 L 560.6096 360.5794 C 560.6096 360.5794 561.1656 354.0894 567.9026 354.0894 C 572.0446 354.0894 575.6906 356.6234 575.6906 360.1454 C 575.6906 363.4834 574.5156 364.7824 570.4376 366.0184 L 565.5546 367.5634 C 559.6206 369.4804 556.7766 373.1874 556.7766 378.7504 C 556.7766 386.8474 563.5766 392.9054 572.8476 392.9054 C 584.9006 392.9054 586.6306 382.7684 586.6306 382.7684 L 578.7816 380.2344 C 578.7816 380.2344 578.1006 385.6114 572.4156 385.6114 C 568.3966 385.6114 565.1836 383.1394 565.1836 379.5544 C 565.1836 376.5864 566.4186 375.3504 570.6846 373.9914 L 575.8146 372.3224 C 581.6246 370.4064 584.4056 366.6974 584.4056 361.0114 C 584.3436 352.7294 577.2976 346.7344 567.2856 346.7344 C 554.2436 346.7344 552.3266 358.4774 552.3266 358.4774 M 516.8566 384.2514 L 502.0836 384.2514 L 495.3466 347.4134 L 486.8176 347.4134 L 493.5546 384.2514 L 478.8426 384.2514 L 480.3276 392.2254 L 518.2776 392.2254 Z M 429.3446 378.0094 C 429.3446 382.3364 426.7486 384.3144 421.3096 384.3144 L 413.0886 384.3144 L 410.4306 370.0354 L 419.9496 370.0354 C 425.5116 370.0354 429.3446 373.3114 429.3446 378.0094 M 425.6356 362.9894 L 433.3616 347.4134 L 423.7816 347.4134 L 417.5386 362.0624 L 408.9476 362.0624 L 406.2896 347.4134 L 397.8216 347.4134 L 406.0416 392.2254 L 421.1236 392.2254 C 431.8786 392.2254 437.9976 387.2184 437.9976 378.4414 C 437.9976 371.1484 432.9906 365.2144 425.6356 362.9894 M 347.8906 371.8274 C 347.8906 379.6164 342.5746 384.8694 334.7866 384.8694 C 324.8966 384.8694 317.5416 377.6994 317.5416 367.9344 C 317.5416 360.1454 322.8576 354.8304 330.6446 354.8304 C 340.6586 354.8304 347.8906 361.9384 347.8906 371.8274 M 308.7646 367.2534 C 308.7646 381.9024 320.1376 392.9054 335.2186 392.9054 C 347.4576 392.9054 356.6666 384.0654 356.6666 372.4464 C 356.6666 357.7984 345.2326 346.7344 330.2126 346.7344 C 317.9746 346.7344 308.7646 355.5724 308.7646 367.2534 M 258.0286 377.3284 C 258.0286 382.0884 255.4326 384.3144 249.9926 384.3144 L 242.3916 384.3144 L 239.4856 368.7374 L 248.3246 368.7374 C 253.8256 368.7374 258.0286 372.3844 258.0286 377.3284 M 266.8056 377.7614 C 266.8056 368.1204 258.5846 360.7634 247.6446 360.7634 L 238.0646 360.7634 L 235.5916 347.4134 L 227.1236 347.4134 L 235.3446 392.2254 L 249.9316 392.2254 C 260.6866 392.2254 266.8056 386.9714 266.8056 377.7614 M 152.8376 358.4774 L 161.1206 360.5794 C 161.1206 360.5794 161.6766 354.0894 168.4136 354.0894 C 172.5546 354.0894 176.2016 356.6234 176.2016 360.1454 C 176.2016 363.4834 175.0276 364.7824 170.9476 366.0184 L 166.0656 367.5634 C 160.1316 369.4804 157.2886 373.1874 157.2886 378.7504 C 157.2886 386.8474 164.0876 392.9054 173.3586 392.9054 C 185.4116 392.9054 187.1426 382.7684 187.1426 382.7684 L 179.2916 380.2344 C 179.2916 380.2344 178.6126 385.6114 172.9256 385.6114 C 168.9076 385.6114 165.6946 383.1394 165.6946 379.5544 C 165.6946 376.5864 166.9306 375.3504 171.1946 373.9914 L 176.3256 372.3224 C 182.1356 370.4064 184.9166 366.6974 184.9166 361.0114 C 184.8556 352.7294 177.8086 346.7344 167.7956 346.7344 C 154.7536 346.7344 152.8376 358.4774 152.8376 358.4774 " fill="#262262"/>
<path transform="matrix(2.7777777,0,0,-2.7777777,0,3000)" d="M 573.2684 606.558 C 592.9434 606.558 603.3234 625.909 606.2774 642.468 C 608.1204 653.01 606.7384 660.816 602.1034 666.344 C 597.8214 671.44 591.1544 674.014 582.2924 674.014 L 472.3404 674.014 L 446.3504 606.558 Z M 808.9634 630.526 L 676.9774 456.501 L 591.2404 456.501 L 591.2974 456.577 L 524.5664 456.577 L 463.9664 547.395 L 423.5314 547.395 L 388.6514 456.577 L 299.9194 456.577 L 378.9484 662.117 L 379.1374 662.631 C 384.2604 679.137 383.0134 694.53 375.4524 708.379 C 373.3934 712.154 370.9424 715.621 368.2464 718.816 L 267.3854 456.574 L 178.6364 456.574 L 257.6944 662.246 L 257.8714 662.776 C 262.9744 679.281 261.7364 694.666 254.1854 708.486 C 248.4904 718.885 239.9214 727.012 231.1444 733.192 L 352.3504 733.192 C 352.3444 733.196 352.3384 733.201 352.3334 733.205 L 613.7574 733.205 C 638.7184 733.205 656.2804 726.863 667.4474 713.881 C 678.2324 701.279 683.4914 682.064 683.4914 655.124 C 683.4914 605.42 665.2234 547.395 613.7574 547.395 L 560.9644 547.395 L 607.3834 477.796 L 745.6684 660.217 C 755.5864 673.246 759.1734 686.899 756.3124 700.803 C 753.5994 714.04 745.3434 725.098 737.0854 733.266 L 886.9054 733.266 Z M 927.1614 456.501 L 834.8734 456.501 L 784.6344 501.93 L 833.1914 495.528 L 816.4494 610.68 L 890.4354 708.206 Z " fill="#ed1c24"/>
</g>
</g>
</svg>
